<?xml version="1.0"?>
<svg width="240" height="74" xmlns="http://www.w3.org/2000/svg" xmlns:svg="http://www.w3.org/2000/svg">
 <g class="layer">
  <title>Layer 1</title>
  <path clip-rule="evenodd" d="m105.488,22.7864c-2.32,0 -5.074,0.4919 -8.0821,3.9798l0,-9.7611c0,-2.4659 -2.0013,-4.4718 -4.4616,-4.4718c-2.4603,0 -4.4616,2.0059 -4.4616,4.4718l0,31.8324c0,2.4658 2.0013,4.4717 4.4616,4.4717c2.4603,0 4.4616,-2.0059 4.4616,-4.4717l0,-12.3548c0,-3.5518 1.6827,-5.513 4.7481,-5.513c3.002,0 4.583,1.9037 4.583,5.513l0,12.3548c0,2.4658 2.001,4.4717 4.462,4.4717c2.46,0 4.461,-2.0059 4.461,-4.4717l0,-14.9484c-0.006,-6.9504 -3.805,-11.1027 -10.172,-11.1027zm25.623,0.2173c-3.633,0 -6.514,0.4727 -9.338,1.5332c-1.466,0.5494 -2.447,1.9675 -2.447,3.5263c0,2.0825 1.651,3.7115 3.76,3.7115c0.434,0 0.797,-0.0639 1.294,-0.23c1.715,-0.5366 3.525,-0.7921 5.545,-0.7921c4.793,0 5.813,2.6511 5.826,4.8934c-1.664,-0.543 -3.761,-1.0413 -6.686,-1.0413c-7.623,0 -11.996,3.4943 -11.996,9.5951l0,0.1086c0,5.513 4.131,9.2182 10.275,9.2182c3.461,0 6.234,-1.0541 8.445,-3.2133c0.376,1.5779 1.887,3.0024 4.207,3.0024c2.441,0 4.353,-1.8909 4.353,-4.3056l0,-13.1789c0,-4.1459 -1.083,-7.34 -3.231,-9.4865c-2.218,-2.2167 -5.584,-3.341 -10.007,-3.341zm-1.294,24.1155c-2.53,0 -4.098,-1.201 -4.098,-3.1366l0,-0.1086c0,-2.3062 1.925,-3.6221 5.284,-3.6221c1.72,0 3.435,0.3385 4.856,0.9518l0,1.2201c0,2.7598 -2.485,4.6954 -6.042,4.6954zm26.489,-20.2759c2.307,-2.7278 5.15,-4.0566 8.668,-4.0566c6.712,0 13.5,5.2575 13.5,15.3126l0,0.1086c0,4.6314 -1.421,8.5538 -4.105,11.3518c-2.454,2.5617 -5.787,3.9671 -9.395,3.9671c-3.473,0 -6.233,-1.1882 -8.623,-3.7179l0,7.6658c0,2.4658 -2.002,4.4717 -4.462,4.4717c-2.46,0 -4.462,-2.0059 -4.462,-4.4717l0,-29.999c0,-2.4659 2.002,-4.4718 4.462,-4.4718c2.25,0 4.111,1.6738 4.417,3.8394zm13.251,11.256c0,-4.3376 -2.874,-7.6148 -6.686,-7.6148c-3.837,0 -6.629,3.2005 -6.629,7.6148l0,0.1086c0,4.4142 2.786,7.6147 6.629,7.6147c3.875,0 6.686,-3.2005 6.686,-7.6147l0,-0.1086zm28.523,-15.3126c-3.519,0 -6.361,1.3288 -8.669,4.0566c-0.306,-2.1656 -2.167,-3.8394 -4.417,-3.8394c-2.46,0 -4.461,2.0059 -4.461,4.4718l0,29.999c0,2.4658 2.001,4.4717 4.461,4.4717c2.461,0 4.462,-2.0059 4.462,-4.4717l0,-7.6658c2.39,2.5297 5.15,3.7179 8.624,3.7179c3.607,0 6.941,-1.4054 9.395,-3.9671c2.683,-2.798 4.104,-6.7204 4.104,-11.3518l0,-0.1086c0,-10.0551 -6.788,-15.3126 -13.499,-15.3126zm-2.104,7.6978c3.812,0 6.686,3.2772 6.686,7.6148l0,0.1086c0,4.4142 -2.81,7.6147 -6.686,7.6147c-3.843,0 -6.628,-3.2005 -6.628,-7.6147l0,-0.1086c0,-4.4143 2.791,-7.6148 6.628,-7.6148zm35.509,-4.1077c0.828,-2.2104 2.307,-3.373 4.276,-3.373c2.378,0 4.245,1.8206 4.239,4.1332c0,0.6707 -0.217,1.6417 -0.408,2.0889l-10.064,24.2241c-2.53,6.139 -5.169,8.3174 -10.083,8.3174c-1.734,0 -3.066,-0.23 -4.596,-0.7793c-1.052,-0.3833 -2.823,-1.3799 -2.823,-3.7435c0,-2.3253 1.829,-3.7116 3.594,-3.7116c0.701,0 1.122,0.1214 1.46,0.2364c0.695,0.2172 1.077,0.3066 1.606,0.3066c1.339,0 1.9,-0.2172 2.575,-1.514l0.204,-0.4855l-9.79,-22.7356c-0.223,-0.5622 -0.459,-1.431 -0.459,-2.0379c0,-2.453 1.893,-4.3056 4.404,-4.3056c2.072,0 3.474,1.086 4.277,3.3219l5.896,15.8874l5.692,-15.8299z" fill="#3f3f3f" fill-rule="evenodd" id="svg_1"/>
  <path d="m63.9739,18.7786l0,26.1292c0,10.3706 -8.44,18.7785 -18.8502,18.7785l-1.9067,0l-9.7365,9.6932c-0.3813,0.3799 -0.9088,0.6205 -1.4935,0.6205c-0.5403,0 -1.0296,-0.1963 -1.4046,-0.5255l-0.1652,-0.1646l-0.0064,-0.0063l-9.6539,-9.6173l-1.913,0c-10.40387,0 -18.8439,-8.4079 -18.8439,-18.7785l0,-26.1292c0,-10.37066 8.44003,-18.7786 18.8503,-18.7786l26.2734,0c10.4102,0 18.8502,8.40794 18.8502,18.7786z" fill="#FFD666" id="svg_2"/>
  <path d="m14.895,36.197c-1.8558,0 -2.9136,2.1066 -1.8368,3.6278c4.1867,5.9253 11.1095,9.7885 18.9318,9.7885c7.8223,0 14.7389,-3.8696 18.9255,-9.7885c1.0768,-1.5212 0.019,-3.6278 -1.8368,-3.6278l-34.1837,0z" fill="white" id="svg_3"/>
  <path d="m25.764,27.2298l-11.1982,0l0,-5.6262c0,-3.1059 2.5082,-5.6262 5.5991,-5.6262c3.0909,0 5.5991,2.5203 5.5991,5.6262l0,5.6262z" fill="white" id="svg_4"/>
  <path d="m49.4148,27.2298l-11.1982,0l0,-5.6262c0,-3.1059 2.5082,-5.6262 5.5991,-5.6262c3.0909,0 5.5991,2.5203 5.5991,5.6262l0,5.6262z" fill="white" id="svg_5"/>
 </g>
</svg>